<!DOCTYPE svg PUBLIC "-//W3C//DTD SVG 1.1//EN" "http://www.w3.org/Graphics/SVG/1.1/DTD/svg11.dtd">
<!-- Uploaded to: SVG Repo, www.svgrepo.com, Transformed by: SVG Repo Mixer Tools -->
<svg fill="#9e9a9a" height="64px" width="64px" version="1.1" id="Layer_1" xmlns="http://www.w3.org/2000/svg" xmlns:xlink="http://www.w3.org/1999/xlink" viewBox="0 0 277.06 277.06" xml:space="preserve" stroke="#9e9a9a">
<g id="SVGRepo_bgCarrier" stroke-width="0"/>
<g id="SVGRepo_tracerCarrier" stroke-linecap="round" stroke-linejoin="round"/>
<g id="SVGRepo_iconCarrier"> <g> <g> <g> <path d="M172.212,108.496c0,0.78,0.636,1.416,1.416,1.416c0.78,0,1.416-0.636,1.416-1.416V86.584c0-0.78-0.636-1.416-1.416-1.416 c-0.78,0-1.416,0.636-1.416,1.416V108.496z"/> <path d="M175.044,80.06V66.304c0-0.78-0.636-1.416-1.416-1.416c-0.78,0-1.416,0.636-1.416,1.416V80.06 c0,0.78,0.632,1.416,1.416,1.416S175.044,80.84,175.044,80.06z"/> <path d="M184.004,86.588V65.836c0-0.78-0.636-1.416-1.416-1.416c-0.78,0-1.416,0.636-1.416,1.416v20.752 c0,0.78,0.632,1.416,1.416,1.416S184.004,87.368,184.004,86.588z"/> <path d="M181.172,117.78c0,0.78,0.636,1.416,1.416,1.416c0.78,0,1.416-0.636,1.416-1.416V93.924c0-0.78-0.636-1.416-1.416-1.416 c-0.78,0-1.416,0.636-1.416,1.416V117.78z"/> <path d="M190.984,108.496c0,0.78,0.636,1.416,1.416,1.416c0.78,0,1.416-0.636,1.416-1.416V93.924c0-0.78-0.636-1.416-1.416-1.416 c-0.78,0-1.416,0.636-1.416,1.416V108.496z"/> <path d="M192.4,88.004c0.784,0,1.416-0.636,1.416-1.416V66.304c0-0.78-0.636-1.416-1.416-1.416c-0.78,0-1.416,0.636-1.416,1.416 v20.284C190.984,87.368,191.62,88.004,192.4,88.004z"/> <path d="M202.776,76.568V65.836c0-0.78-0.636-1.416-1.416-1.416c-0.78,0-1.416,0.636-1.416,1.416v10.732 c0,0.78,0.632,1.416,1.416,1.416S202.776,77.348,202.776,76.568z"/> <path d="M199.944,110.044c0,0.78,0.636,1.416,1.416,1.416c0.78,0,1.416-0.636,1.416-1.416v-23.86c0-0.78-0.636-1.416-1.416-1.416 c-0.78,0-1.416,0.636-1.416,1.416V110.044z"/> <path d="M275.644,240.368h-56.828c26.076-6.532,43.024-26.32,43.024-52.528v-28.224c5.032-0.364,9.024-4.532,9.024-9.652 c0-5.36-4.36-9.72-9.72-9.72H248.14V48.916c0-0.148-0.016-0.296-0.052-0.444c-3.448-15.04-17.236-25.708-32.448-25.232 c-14.464,0.392-27.032,10.664-30.52,24.656h-13.428c-3.228,0-5.852,2.624-5.852,5.856c0,3.228,2.624,5.852,5.852,5.852h30.944 c3.228,0,5.852-2.624,5.852-5.852c0-3.232-2.624-5.856-5.852-5.856h-13.332c3.396-11.772,14.092-20.356,26.44-20.688 c13.308-0.416,25.316,8.848,28.42,21.932v91.104H93.98v-3.656c0-1.096-0.888-1.984-1.984-1.984H41.308 c-1.096,0-1.984,0.888-1.984,1.984v3.656H9.72c-5.36,0-9.72,4.36-9.72,9.72c0,5.12,3.996,9.288,9.024,9.652v28.224 c0,26.208,16.948,45.996,43.024,52.528H1.98c-0.784,0-1.416,0.636-1.416,1.416v10.636c0,0.78,0.636,1.416,1.416,1.416h273.664 c0.784,0,1.416-0.636,1.416-1.416v-10.636C277.06,241.004,276.428,240.368,275.644,240.368z M202.64,51.864 c1.04,0,1.884,0.848,1.884,1.888s-0.844,1.884-1.884,1.884h-30.944c-1.04,0-1.884-0.844-1.884-1.884 c0-1.04,0.844-1.888,1.884-1.888H202.64z M93.976,144.216h167.168v0c3.172,0,5.752,2.58,5.752,5.752s-2.58,5.752-5.752,5.752 c-0.332,0-0.632,0.104-0.908,0.248c-0.128-0.024-0.244-0.076-0.38-0.076H94.976c-0.372,0-0.7,0.128-1,0.308V144.216z M43.292,138.576h46.72v50.112c-0.012,0-0.024-0.008-0.036-0.008H43.292V138.576z M43.292,191.516h46.684 c0.012,0,0.024-0.008,0.036-0.008v6.276h-46.72V191.516z M3.968,149.964c0-3.172,2.58-5.752,5.752-5.752h29.604v11.504H9.72 C6.548,155.72,3.968,153.136,3.968,149.964z M12.992,187.84v-27.98h26.332v39.912c0,1.096,0.888,1.984,1.984,1.984h50.688 c1.096,0,1.984-0.888,1.984-1.984v-40.22c0.296,0.176,0.624,0.308,1,0.308h162.892v27.98c0,29.96-24.104,50.884-58.616,50.884 H71.608C37.096,238.724,12.992,217.8,12.992,187.84z M274.228,251.004h-0.004H3.4v-7.8h270.828V251.004z"/> </g> </g> </g> </g>
</svg>