<!DOCTYPE svg PUBLIC "-//W3C//DTD SVG 1.1//EN" "http://www.w3.org/Graphics/SVG/1.1/DTD/svg11.dtd">
<!-- Uploaded to: SVG Repo, www.svgrepo.com, Transformed by: SVG Repo Mixer Tools -->
<svg fill="#908e8e" width="64px" height="64px" viewBox="-10 -10 120.00 120.00" xmlns="http://www.w3.org/2000/svg" stroke="#908e8e" transform="rotate(0)matrix(1, 0, 0, 1, 0, 0)">
<g id="SVGRepo_bgCarrier" stroke-width="0"/>
<g id="SVGRepo_tracerCarrier" stroke-linecap="round" stroke-linejoin="round"/>
<g id="SVGRepo_iconCarrier"> <title/> <g data-name="Calque 2" id="Calque_2"> <path d="M77.7,68.09a1.12,1.12,0,0,0,0-.32L75.14,31.61a1.5,1.5,0,0,0-1.5-1.4H71.91V25.29a1.5,1.5,0,0,0-1.5-1.5H59.54a1.5,1.5,0,0,0-1.5,1.5v4.92H56.31a1.51,1.51,0,0,0-1.5,1.4L54.1,41.78H47.72L47,31.61a1.51,1.51,0,0,0-1.5-1.4H43.79V25.29a1.5,1.5,0,0,0-1.5-1.5H31.41a1.5,1.5,0,0,0-1.5,1.5v4.92H28.19a1.5,1.5,0,0,0-1.5,1.4l-3,43a1.49,1.49,0,0,0,1.5,1.6H48.52a1.52,1.52,0,0,0,1.1-.47,1.57,1.57,0,0,0,.4-1.13l-.45-6.44v-.08a1.66,1.66,0,0,0,0-.32L48.38,51.23h5.07L51.81,74.61a1.49,1.49,0,0,0,1.5,1.6H76.64a1.5,1.5,0,0,0,1.1-.47,1.53,1.53,0,0,0,.4-1.13l-.45-6.44S77.7,68.12,77.7,68.09ZM46.91,73.21H26.79l.26-3.62H46.66ZM27.26,66.59l2.32-33.38H44.12l.6,8.57H42.29a1.5,1.5,0,0,0-1.5,1.5v6.45a1.5,1.5,0,0,0,1.5,1.5h3.09l1.07,15.36Zm5.65-39.8h7.88v3.42H32.91ZM43.79,48.23V44.78H57v3.45Zm14.75,3a1.5,1.5,0,0,0,1.5-1.5V43.28a1.5,1.5,0,0,0-1.5-1.5H57.11l.6-8.57H72.24l2.33,33.38H55.38l1.07-15.36ZM61,26.79h7.87v3.42H61ZM75,73.21H54.92l.25-3.62H74.78Z"/> </g> </g>
</svg>