<!DOCTYPE svg PUBLIC "-//W3C//DTD SVG 1.1//EN" "http://www.w3.org/Graphics/SVG/1.1/DTD/svg11.dtd">
<!-- Uploaded to: SVG Repo, www.svgrepo.com, Transformed by: SVG Repo Mixer Tools -->
<svg width="64px" height="64px" viewBox="0 0 32 32" style="fill-rule:evenodd;clip-rule:evenodd;stroke-linejoin:round;stroke-miterlimit:2;" version="1.1" xml:space="preserve" xmlns="http://www.w3.org/2000/svg" xmlns:serif="http://www.serif.com/" xmlns:xlink="http://www.w3.org/1999/xlink" fill="#000000">
<g id="SVGRepo_bgCarrier" stroke-width="0"/>
<g id="SVGRepo_tracerCarrier" stroke-linecap="round" stroke-linejoin="round"/>
<g id="SVGRepo_iconCarrier">
<path d="M8.848,25.799c0.016,-0.242 0.205,-0.44 0.449,-0.464c0.256,-0.025 0.489,0.148 0.54,0.4c0.38,1.91 1.62,3.783 3.543,3.403c0.326,-0.064 0.646,-0.249 0.896,-0.487c0.788,-0.751 1.204,-1.836 1.464,-2.934c0.059,-0.247 0.293,-0.411 0.545,-0.381c0.244,0.028 0.43,0.23 0.441,0.474c0.391,1.895 1.626,3.736 3.535,3.359c0.326,-0.064 0.645,-0.249 0.896,-0.487c0.788,-0.751 1.204,-1.836 1.463,-2.934c0.055,-0.229 0.261,-0.389 0.496,-0.384c0.235,0.004 0.435,0.171 0.481,0.402c0.381,1.91 1.62,3.782 3.544,3.403c0.326,-0.064 0.646,-0.249 0.896,-0.487c0.788,-0.751 1.204,-1.836 1.464,-2.934c0.063,-0.268 0.333,-0.435 0.602,-0.371c0.268,0.063 0.434,0.333 0.371,0.602c-0.305,1.287 -0.823,2.546 -1.747,3.427c-0.388,0.369 -0.888,0.644 -1.393,0.744c-1.934,0.382 -3.432,-0.899 -4.226,-2.651c-0.303,0.721 -0.71,1.381 -1.262,1.907c-0.387,0.369 -0.887,0.644 -1.392,0.744c-1.94,0.383 -3.441,-0.906 -4.233,-2.666c-0.302,0.715 -0.707,1.369 -1.255,1.891c-0.387,0.369 -0.888,0.644 -1.392,0.744c-1.929,0.381 -3.425,-0.892 -4.22,-2.636c-0.304,0.727 -0.712,1.393 -1.268,1.923c-0.388,0.369 -0.888,0.644 -1.393,0.744c-2.469,0.487 -4.229,-1.735 -4.717,-4.189c-0.054,-0.27 0.122,-0.534 0.392,-0.588c0.271,-0.054 0.534,0.122 0.588,0.393c0.381,1.91 1.62,3.782 3.544,3.403c0.326,-0.064 0.646,-0.249 0.896,-0.487c0.776,-0.739 1.191,-1.803 1.452,-2.883Z" style="fill:#32b2ff;"/>
<path d="M8.851,19.453c0.016,-0.242 0.205,-0.439 0.449,-0.463c0.256,-0.025 0.49,0.148 0.54,0.4c0.377,1.895 1.632,3.396 3.54,3.02c0.326,-0.065 0.646,-0.249 0.896,-0.488c0.788,-0.75 1.204,-1.835 1.464,-2.933c0.059,-0.247 0.293,-0.411 0.545,-0.381c0.244,0.028 0.43,0.23 0.441,0.474c0.391,1.895 1.626,3.735 3.535,3.359c0.326,-0.065 0.645,-0.249 0.896,-0.488c0.777,-0.74 1.161,-1.32 1.417,-2.402c0.055,-0.229 0.261,-0.389 0.496,-0.385c0.235,0.004 0.435,0.172 0.481,0.402c0.377,1.892 1.685,3.248 3.59,2.873c0.326,-0.065 0.646,-0.249 0.896,-0.488c0.788,-0.75 1.204,-1.835 1.464,-2.933c0.063,-0.268 0.333,-0.435 0.602,-0.371c0.268,0.063 0.434,0.333 0.371,0.601c-0.305,1.288 -0.823,2.547 -1.747,3.428c-0.388,0.368 -0.888,0.644 -1.393,0.744c-1.97,0.389 -3.498,-0.582 -4.293,-2.231c-0.284,0.532 -0.661,0.979 -1.195,1.487c-0.387,0.368 -0.887,0.644 -1.392,0.744c-1.94,0.383 -3.441,-0.906 -4.233,-2.666c-0.302,0.715 -0.707,1.369 -1.255,1.891c-0.387,0.368 -0.888,0.644 -1.392,0.744c-1.959,0.386 -3.453,-0.668 -4.239,-2.34c-0.301,0.595 -0.703,1.106 -1.249,1.627c-0.388,0.368 -0.888,0.644 -1.393,0.744c-2.469,0.487 -4.229,-1.736 -4.717,-4.189c-0.054,-0.271 0.122,-0.534 0.392,-0.588c0.271,-0.054 0.534,0.122 0.588,0.393c0.381,1.91 1.62,3.782 3.544,3.403c0.326,-0.065 0.646,-0.249 0.896,-0.488c0.769,-0.732 1.196,-1.44 1.455,-2.5Z" style="fill:#32b2ff;"/>
<path d="M15.849,5.3c0,-2.11 -1.582,-3.8 -3.5,-3.8c-1.918,0 -3.5,1.69 -3.5,3.8c0,-0 0.003,14.666 0.003,14.666c0.001,0.276 0.225,0.5 0.501,0.5c0.276,0 0.5,-0.224 0.499,-0.5l-0.003,-14.666c0,-1.533 1.107,-2.8 2.5,-2.8c1.394,0 2.5,1.267 2.5,2.8c0,0.276 0.224,0.5 0.5,0.5c0.276,-0 0.5,-0.224 0.5,-0.5Z" style="fill:#32b2ff;"/>
<path d="M22.561,12.234l-0,-6.934c-0,-2.11 1.582,-3.8 3.5,-3.8c1.918,0 3.5,1.69 3.5,3.8c-0,0.276 -0.224,0.5 -0.5,0.5c-0.276,-0 -0.5,-0.224 -0.5,-0.5c-0,-1.533 -1.107,-2.8 -2.5,-2.8c-1.394,0 -2.5,1.267 -2.5,2.8l-0,14.283l-0.001,0.026l-0.002,0.025l-0.003,0.025l-0.004,0.025c-0.002,0.008 -0.004,0.016 -0.006,0.024l-0.007,0.024l-0.007,0.023l-0.009,0.023l-0.01,0.022l-0.011,0.021l-0.012,0.021l-0.013,0.021l-0.014,0.019l-0.015,0.019l-0.016,0.018l-0.017,0.018l-0.017,0.016l-0.018,0.016l-0.019,0.015l-0.02,0.014l-0.02,0.013l-0.021,0.012l-0.021,0.011l-0.022,0.01l-0.023,0.009l-0.023,0.008l-0.024,0.006l-0.024,0.006l-0.025,0.004l-0.025,0.003l-0.025,0.002l-0.026,0.001l-0.026,-0.001l-0.025,-0.002l-0.025,-0.003l-0.025,-0.004l-0.024,-0.006l-0.024,-0.006l-0.023,-0.008l-0.023,-0.009l-0.022,-0.01l-0.021,-0.011l-0.021,-0.012l-0.021,-0.013l-0.019,-0.014l-0.019,-0.015l-0.018,-0.016l-0.018,-0.016l-0.016,-0.018l-0.016,-0.018l-0.015,-0.019l-0.014,-0.019l-0.013,-0.021l-0.012,-0.021l-0.011,-0.021l-0.01,-0.022l-0.009,-0.023l-0.008,-0.023l-0.006,-0.024l-0.006,-0.024l-0.004,-0.025l-0.004,-0.025l-0.001,-0.025l-0.001,-0.026l-0,-6.349l-13.212,-0c-0.276,-0 -0.5,-0.224 -0.5,-0.5c0,-0.276 0.224,-0.5 0.5,-0.5l13.212,-0Z" style="fill:#32b2ff;"/>
<path d="M9.338,18.239c0.438,0.01 13.722,-0.02 13.722,-0.02c0.276,-0.001 0.499,-0.225 0.499,-0.501c-0.001,-0.276 -0.226,-0.5 -0.502,-0.499c0,-0 -13.259,0.03 -13.696,0.02c-0.276,-0.006 -0.505,0.212 -0.511,0.488c-0.007,0.276 0.212,0.505 0.488,0.512Z" style="fill:#32b2ff;"/>
<path d="M9.361,8.166c0.438,0.01 13.721,-0.02 13.721,-0.02c0.276,-0 0.5,-0.225 0.499,-0.501c-0,-0.276 -0.225,-0.499 -0.501,-0.499c0,0 -13.259,0.03 -13.697,0.02c-0.275,-0.006 -0.505,0.213 -0.511,0.489c-0.006,0.276 0.213,0.505 0.489,0.511Z" style="fill:#32b2ff;"/>
</g>
</svg>